<svg viewBox="0 0 58 90" version="1.1" xmlns="http://www.w3.org/2000/svg" xmlns:xlink="http://www.w3.org/1999/xlink"><g stroke="none" stroke-width="1" fill="none" fill-rule="evenodd"><g transform="translate(-139.000000, -62.000000)" fill="#000000" fill-rule="nonzero"><g id="Group" transform="translate(139.000000, 62.000000)"><path d="M47.717,0.016 C37.618,-0.229 25.907,2.42 16.524,7.108 C16.728,7.244 16.931,7.381 17.127,7.536 C21.13,10.692 21.816,16.496 18.659,20.498 C15.502,24.501 9.699,25.187 5.697,22.03 C4.876,21.383 4.203,20.621 3.666,19.79 C1.222,25.543 0.663,32.291 0.336,38.9 C-0.021,46.126 -0.132,52.525 0.2,59.818 C0.581,68.211 2.601,76.453 3.411,84.787 C3.473,85.426 3.605,86.058 3.64,86.699 C3.673,87.306 3.471,87.908 3.529,88.496 C5.623,88.932 8.031,88.785 10.18,88.928 C12.539,89.082 14.898,89.244 17.257,89.395 C22.092,89.702 26.934,89.959 31.781,90.0001367 C32.933,90.01 46.454,89.469 46.388,89.143 C44.166,77.995 43.768,65.356 42.794,53.729 C42.244,47.172 39.237,38.413 44.056,33.379 C47.381,29.906 55.732,30.176 53.774,23.49 C47.55,23.114 41.67,26.175 35.487,25.136 C37.104,22.528 40.958,20.095 44.01,18.323 C48.54,15.691 56.378,13.914 57.557,8.631 C59.078,1.811 52.799,0.139 47.717,0.016 Z" id="Path"></path><circle id="Oval" cx="12.95" cy="14.82" r="5.23"></circle></g></g></g></svg>