<svg width="256" height="256" xmlns="http://www.w3.org/2000/svg"><g fill-rule="nonzero" fill="none"><path d="M100.2 24a20.8 20.8 0 100 41.6H121V44.8c0-11.5-9.3-20.8-20.8-20.8zm0 55.4H44.8a20.8 20.8 0 000 41.6h55.4a20.8 20.8 0 100-41.6z" fill="#36C5F0"/><path d="M232 100.2a20.8 20.8 0 00-41.6 0V121h20.8c11.5 0 20.8-9.3 20.8-20.8zm-55.4 0V44.8a20.8 20.8 0 00-41.6 0v55.4a20.8 20.8 0 1041.6 0z" fill="#2EB67D"/><path d="M155.8 232a20.8 20.8 0 100-41.6H135v20.8c0 11.5 9.3 20.8 20.8 20.8zm0-55.4h55.4a20.8 20.8 0 000-41.6h-55.4a20.8 20.8 0 000 41.6z" fill="#ECB22E"/><path d="M24 155.8a20.8 20.8 0 0041.6 0V135H44.8A20.8 20.8 0 0024 155.8zm55.4 0v55.4a20.8 20.8 0 0041.6 0v-55.4a20.8 20.8 0 00-41.6 0z" fill="#E01E5A"/></g></svg>