<svg xmlns="http://www.w3.org/2000/svg" viewBox="0 0 67.79 125"><path d="M52.717 5.016c-10.099-.245-21.81 2.404-31.193 7.092.204.136.407.273.603.428a9.228 9.228 0 011.532 12.962 9.228 9.228 0 01-12.962 1.532 9.186 9.186 0 01-2.031-2.24c-2.444 5.753-3.003 12.501-3.33 19.11-.357 7.226-.468 13.625-.136 20.918.381 8.393 2.401 16.635 3.211 24.969.062.639.194 1.271.229 1.912.033.607-.169 1.209-.111 1.797 2.094.436 4.502.289 6.651.432 2.359.154 4.718.316 7.077.467 4.835.307 9.677.564 14.524.605 1.152.01 14.673-.531 14.607-.857-2.222-11.148-2.62-23.787-3.594-35.414-.55-6.557-3.557-15.316 1.262-20.35 3.325-3.473 11.676-3.203 9.718-9.889-6.224-.376-12.104 2.685-18.287 1.646 1.617-2.608 5.471-5.041 8.523-6.813 4.53-2.632 12.368-4.409 13.547-9.692 1.521-6.82-4.758-8.492-9.84-8.615z"/><circle cx="17.95" cy="19.82" r="5.23"/></svg>