<svg width="256" height="256" xmlns="http://www.w3.org/2000/svg"><path d="M178.7 30.5a7 7 0 01-3 5.8l-32.6 23.5a7 7 0 01-11.2-5.8V40c-1 .2-1.9.4-2.8.4A96.3 96.3 0 00116 232a96 96 0 00107-76 11.5 11.5 0 0119.3-7c3.1 2.9 4.4 7.4 3.1 11.5a119 119 0 01-235.2-32A119.1 119.1 0 01129 17.1c1 0 2 .2 2.9.5V7A7 7 0 01143 1.3l32.7 23.5a7 7 0 013 5.7zm45.4 90.8a11.5 11.5 0 1018.2-11 11.5 11.5 0 00-18.2 11zM197.5 65a11.5 11.5 0 100-23 11.5 11.5 0 000 23zm19.3 7.5a11.5 11.5 0 1011.4 20 11.5 11.5 0 00-11.4-20zM190 137a61 61 0 11-122 0 61 61 0 01122 0zm-36.6 13.7l-16.7-17v-26.2c0-4.1-3.3-7.5-7.3-7.5-4.1 0-7.4 3.4-7.4 7.5V140l21 21.3a7.3 7.3 0 0012.8-3c.6-2.8-.3-5.7-2.4-7.6z" fill="#449200" fill-rule="nonzero"/></svg>